<mxfile host="Electron" agent="Mozilla/5.0 (X11; Linux x86_64) AppleWebKit/537.36 (KHTML, like Gecko) draw.io/28.0.6 Chrome/138.0.7204.100 Electron/37.2.3 Safari/537.36" version="28.0.6">
  <diagram name="Page-1" id="hq2FY4amXDsmqVs34_8E">
    <mxGraphModel dx="1426" dy="848" grid="1" gridSize="10" guides="1" tooltips="1" connect="1" arrows="1" fold="1" page="1" pageScale="1" pageWidth="850" pageHeight="1100" math="0" shadow="0">
      <root>
        <mxCell id="0" />
        <mxCell id="1" parent="0" />
        <mxCell id="5H_EbrkYPOPUIVsiFO6Z-94" value="&lt;font style=&quot;font-size: 18px;&quot; color=&quot;#ffffff&quot;&gt;&lt;b&gt;&amp;nbsp;user&lt;/b&gt;&lt;/font&gt;" style="swimlane;strokeColor=none;swimlaneFillColor=#F2F2F2;fillColor=#316896;fontStyle=0;childLayout=stackLayout;horizontal=1;startSize=30;horizontalStack=0;resizeParent=1;resizeParentMax=0;resizeLast=0;collapsible=0;marginBottom=0;whiteSpace=wrap;html=1;fontSize=17;textShadow=0;shadow=1;rounded=0;align=left;" parent="1" vertex="1">
          <mxGeometry x="40" y="80" width="220" height="130" as="geometry" />
        </mxCell>
        <mxCell id="5H_EbrkYPOPUIVsiFO6Z-95" value="&lt;font style=&quot;font-size: 16px;&quot;&gt;&lt;b&gt;user_id&lt;/b&gt;&amp;nbsp; &amp;nbsp; &amp;nbsp; &amp;nbsp; &amp;nbsp; &amp;nbsp; &amp;nbsp; &amp;nbsp; &amp;nbsp; &amp;nbsp; &amp;nbsp;&amp;nbsp;&lt;/font&gt;&lt;font style=&quot;font-size: 10px; color: rgb(148, 148, 148);&quot;&gt;SMALLINT&lt;/font&gt;" style="text;spacing=0;strokeColor=none;align=left;verticalAlign=middle;spacingLeft=7;spacingRight=10;overflow=hidden;points=[[0,0.5],[1,0.5]];portConstraint=eastwest;rotatable=0;whiteSpace=wrap;html=1;fillColor=none;fontColor=#000000;fontSize=17;" parent="5H_EbrkYPOPUIVsiFO6Z-94" vertex="1">
          <mxGeometry y="30" width="220" height="20" as="geometry" />
        </mxCell>
        <mxCell id="5H_EbrkYPOPUIVsiFO6Z-96" value="&lt;font style=&quot;font-size: 16px;&quot;&gt;first_name&amp;nbsp; &amp;nbsp; &amp;nbsp; &amp;nbsp; &amp;nbsp; &amp;nbsp; &amp;nbsp;&amp;nbsp;&lt;/font&gt;&lt;font style=&quot;font-size: 10px; color: rgb(148, 148, 148);&quot;&gt;VARCHAR(30)&lt;/font&gt;" style="text;spacing=0;strokeColor=none;align=left;verticalAlign=middle;spacingLeft=7;spacingRight=10;overflow=hidden;points=[[0,0.5],[1,0.5]];portConstraint=eastwest;rotatable=0;whiteSpace=wrap;html=1;rSize=5;fillColor=none;fontColor=light-dark(#000000, #959595);fontSize=17;" parent="5H_EbrkYPOPUIVsiFO6Z-94" vertex="1">
          <mxGeometry y="50" width="220" height="20" as="geometry" />
        </mxCell>
        <mxCell id="5H_EbrkYPOPUIVsiFO6Z-97" value="&lt;font style=&quot;font-size: 16px;&quot;&gt;last_name&amp;nbsp; &amp;nbsp; &amp;nbsp; &amp;nbsp; &amp;nbsp; &amp;nbsp; &amp;nbsp;&amp;nbsp;&lt;/font&gt;&lt;span style=&quot;font-size: 10px;&quot;&gt;&lt;font style=&quot;color: rgb(148, 148, 148);&quot;&gt;VARCHAR(30)&lt;/font&gt;&lt;/span&gt;" style="text;spacing=0;strokeColor=none;align=left;verticalAlign=middle;spacingLeft=7;spacingRight=10;overflow=hidden;points=[[0,0.5],[1,0.5]];portConstraint=eastwest;rotatable=0;whiteSpace=wrap;html=1;rSize=5;fillColor=none;fontColor=#000000;fontSize=17;" parent="5H_EbrkYPOPUIVsiFO6Z-94" vertex="1">
          <mxGeometry y="70" width="220" height="20" as="geometry" />
        </mxCell>
        <mxCell id="2VhdCc770bpT6j64DNjl-17" value="&lt;font style=&quot;font-size: 16px;&quot;&gt;email&amp;nbsp; &amp;nbsp; &amp;nbsp; &amp;nbsp; &amp;nbsp; &amp;nbsp; &amp;nbsp; &amp;nbsp; &amp;nbsp; &amp;nbsp; &amp;nbsp;&amp;nbsp;&lt;/font&gt;&lt;span style=&quot;font-size: 10px;&quot;&gt;&lt;font style=&quot;color: rgb(148, 148, 148);&quot;&gt;VARCHAR(30)&lt;/font&gt;&lt;/span&gt;" style="text;spacing=0;strokeColor=none;align=left;verticalAlign=middle;spacingLeft=7;spacingRight=10;overflow=hidden;points=[[0,0.5],[1,0.5]];portConstraint=eastwest;rotatable=0;whiteSpace=wrap;html=1;fillColor=none;fontColor=#000000;fontSize=17;" parent="5H_EbrkYPOPUIVsiFO6Z-94" vertex="1">
          <mxGeometry y="90" width="220" height="20" as="geometry" />
        </mxCell>
        <mxCell id="5H_EbrkYPOPUIVsiFO6Z-98" value="&lt;font&gt;&lt;font style=&quot;font-size: 16px;&quot;&gt;password&amp;nbsp;&lt;/font&gt;&lt;font style=&quot;&quot;&gt;&amp;nbsp; &amp;nbsp; &amp;nbsp; &amp;nbsp; &amp;nbsp; &amp;nbsp;&amp;nbsp;&lt;/font&gt;&lt;/font&gt;&lt;span style=&quot;font-size: 10px;&quot;&gt;&lt;font style=&quot;color: rgb(148, 148, 148);&quot;&gt;VARCHAR(100)&lt;/font&gt;&lt;/span&gt;" style="text;spacing=0;strokeColor=none;align=left;verticalAlign=middle;spacingLeft=7;spacingRight=10;overflow=hidden;points=[[0,0.5],[1,0.5]];portConstraint=eastwest;rotatable=0;whiteSpace=wrap;html=1;fillColor=none;fontColor=#000000;fontSize=17;" parent="5H_EbrkYPOPUIVsiFO6Z-94" vertex="1">
          <mxGeometry y="110" width="220" height="20" as="geometry" />
        </mxCell>
        <mxCell id="2VhdCc770bpT6j64DNjl-70" value="&lt;font style=&quot;font-size: 18px;&quot; color=&quot;#ffffff&quot;&gt;&lt;b&gt;&amp;nbsp;contact&lt;/b&gt;&lt;/font&gt;" style="swimlane;strokeColor=none;swimlaneFillColor=#F2F2F2;fillColor=#316896;fontStyle=0;childLayout=stackLayout;horizontal=1;startSize=30;horizontalStack=0;resizeParent=1;resizeParentMax=0;resizeLast=0;collapsible=0;marginBottom=0;whiteSpace=wrap;html=1;fontSize=17;textShadow=0;shadow=1;rounded=0;align=left;" parent="1" vertex="1">
          <mxGeometry x="300" y="80" width="220" height="150" as="geometry" />
        </mxCell>
        <mxCell id="2VhdCc770bpT6j64DNjl-71" value="&lt;font style=&quot;font-size: 16px;&quot;&gt;&lt;b&gt;contact_id&lt;/b&gt;&amp;nbsp; &amp;nbsp; &amp;nbsp; &amp;nbsp; &amp;nbsp; &amp;nbsp; &amp;nbsp; &amp;nbsp; &amp;nbsp;&lt;/font&gt;&lt;font style=&quot;font-size: 10px; color: rgb(148, 148, 148);&quot;&gt;SMALLINT&lt;/font&gt;" style="text;spacing=0;strokeColor=none;align=left;verticalAlign=middle;spacingLeft=7;spacingRight=10;overflow=hidden;points=[[0,0.5],[1,0.5]];portConstraint=eastwest;rotatable=0;whiteSpace=wrap;html=1;fillColor=none;fontColor=#000000;fontSize=17;" parent="2VhdCc770bpT6j64DNjl-70" vertex="1">
          <mxGeometry y="30" width="220" height="20" as="geometry" />
        </mxCell>
        <mxCell id="2VhdCc770bpT6j64DNjl-72" value="&lt;font style=&quot;font-size: 16px;&quot;&gt;first_name&amp;nbsp; &amp;nbsp; &amp;nbsp; &amp;nbsp; &amp;nbsp; &amp;nbsp; &amp;nbsp;&amp;nbsp;&lt;/font&gt;&lt;font style=&quot;font-size: 10px; color: rgb(148, 148, 148);&quot;&gt;VARCHAR(30)&lt;/font&gt;" style="text;spacing=0;strokeColor=none;align=left;verticalAlign=middle;spacingLeft=7;spacingRight=10;overflow=hidden;points=[[0,0.5],[1,0.5]];portConstraint=eastwest;rotatable=0;whiteSpace=wrap;html=1;rSize=5;fillColor=none;fontColor=light-dark(#000000, #959595);fontSize=17;" parent="2VhdCc770bpT6j64DNjl-70" vertex="1">
          <mxGeometry y="50" width="220" height="20" as="geometry" />
        </mxCell>
        <mxCell id="2VhdCc770bpT6j64DNjl-73" value="&lt;font style=&quot;font-size: 16px;&quot;&gt;last_name&amp;nbsp; &amp;nbsp; &amp;nbsp; &amp;nbsp; &amp;nbsp; &amp;nbsp; &amp;nbsp;&amp;nbsp;&lt;/font&gt;&lt;span style=&quot;font-size: 10px;&quot;&gt;&lt;font style=&quot;color: rgb(148, 148, 148);&quot;&gt;VARCHAR(30)&lt;/font&gt;&lt;/span&gt;" style="text;spacing=0;strokeColor=none;align=left;verticalAlign=middle;spacingLeft=7;spacingRight=10;overflow=hidden;points=[[0,0.5],[1,0.5]];portConstraint=eastwest;rotatable=0;whiteSpace=wrap;html=1;rSize=5;fillColor=none;fontColor=#000000;fontSize=17;" parent="2VhdCc770bpT6j64DNjl-70" vertex="1">
          <mxGeometry y="70" width="220" height="20" as="geometry" />
        </mxCell>
        <mxCell id="2VhdCc770bpT6j64DNjl-74" value="&lt;font style=&quot;font-size: 16px;&quot;&gt;birth_date&amp;nbsp; &amp;nbsp; &amp;nbsp; &amp;nbsp; &amp;nbsp; &amp;nbsp; &amp;nbsp; &amp;nbsp; &amp;nbsp; &amp;nbsp; &amp;nbsp; &amp;nbsp;&amp;nbsp;&lt;/font&gt;&lt;span style=&quot;font-size: 10px;&quot;&gt;&lt;font style=&quot;color: rgb(148, 148, 148);&quot;&gt;DATE&lt;/font&gt;&lt;/span&gt;" style="text;spacing=0;strokeColor=none;align=left;verticalAlign=middle;spacingLeft=7;spacingRight=10;overflow=hidden;points=[[0,0.5],[1,0.5]];portConstraint=eastwest;rotatable=0;whiteSpace=wrap;html=1;fillColor=none;fontColor=#000000;fontSize=17;" parent="2VhdCc770bpT6j64DNjl-70" vertex="1">
          <mxGeometry y="90" width="220" height="20" as="geometry" />
        </mxCell>
        <mxCell id="2VhdCc770bpT6j64DNjl-75" value="&lt;font&gt;&lt;font style=&quot;font-size: 16px;&quot;&gt;avatar_url&lt;/font&gt;&lt;font style=&quot;&quot;&gt;&amp;nbsp; &amp;nbsp; &amp;nbsp; &amp;nbsp; &amp;nbsp; &amp;nbsp; &amp;nbsp;&lt;/font&gt;&lt;/font&gt;&lt;span style=&quot;font-size: 10px;&quot;&gt;&lt;font style=&quot;color: rgb(148, 148, 148);&quot;&gt;VARCHAR(100)&lt;/font&gt;&lt;/span&gt;" style="text;spacing=0;strokeColor=none;align=left;verticalAlign=middle;spacingLeft=7;spacingRight=10;overflow=hidden;points=[[0,0.5],[1,0.5]];portConstraint=eastwest;rotatable=0;whiteSpace=wrap;html=1;fillColor=none;fontColor=#000000;fontSize=17;" parent="2VhdCc770bpT6j64DNjl-70" vertex="1">
          <mxGeometry y="110" width="220" height="20" as="geometry" />
        </mxCell>
        <mxCell id="2VhdCc770bpT6j64DNjl-76" value="&lt;font&gt;&lt;font style=&quot;font-size: 16px;&quot;&gt;user_id&amp;nbsp; &amp;nbsp; &lt;/font&gt;&lt;font style=&quot;&quot;&gt;&amp;nbsp; &amp;nbsp; &amp;nbsp; &amp;nbsp; &amp;nbsp; &amp;nbsp; &amp;nbsp; &amp;nbsp; &amp;nbsp;&amp;nbsp;&lt;/font&gt;&lt;/font&gt;&lt;span style=&quot;font-size: 10px;&quot;&gt;&lt;font style=&quot;color: rgb(148, 148, 148);&quot;&gt;SMALLINT&lt;/font&gt;&lt;/span&gt;" style="text;spacing=0;strokeColor=none;align=left;verticalAlign=middle;spacingLeft=7;spacingRight=10;overflow=hidden;points=[[0,0.5],[1,0.5]];portConstraint=eastwest;rotatable=0;whiteSpace=wrap;html=1;fillColor=none;fontColor=#000000;fontSize=17;" parent="2VhdCc770bpT6j64DNjl-70" vertex="1">
          <mxGeometry y="130" width="220" height="20" as="geometry" />
        </mxCell>
        <mxCell id="2VhdCc770bpT6j64DNjl-77" value="&lt;font style=&quot;font-size: 18px;&quot; color=&quot;#ffffff&quot;&gt;&lt;b&gt;&amp;nbsp;address&lt;/b&gt;&lt;/font&gt;" style="swimlane;strokeColor=none;swimlaneFillColor=#F2F2F2;fillColor=#316896;fontStyle=0;childLayout=stackLayout;horizontal=1;startSize=30;horizontalStack=0;resizeParent=1;resizeParentMax=0;resizeLast=0;collapsible=0;marginBottom=0;whiteSpace=wrap;html=1;fontSize=17;textShadow=0;shadow=1;rounded=0;align=left;" parent="1" vertex="1">
          <mxGeometry x="560" y="80" width="220" height="150" as="geometry" />
        </mxCell>
        <mxCell id="2VhdCc770bpT6j64DNjl-78" value="&lt;font style=&quot;font-size: 16px;&quot;&gt;contact_id&amp;nbsp; &amp;nbsp; &amp;nbsp; &amp;nbsp; &amp;nbsp; &amp;nbsp; &amp;nbsp; &amp;nbsp; &amp;nbsp;&amp;nbsp;&lt;/font&gt;&lt;font style=&quot;font-size: 10px; color: rgb(148, 148, 148);&quot;&gt;SMALLINT&lt;/font&gt;" style="text;spacing=0;strokeColor=none;align=left;verticalAlign=middle;spacingLeft=7;spacingRight=10;overflow=hidden;points=[[0,0.5],[1,0.5]];portConstraint=eastwest;rotatable=0;whiteSpace=wrap;html=1;fillColor=none;fontColor=#000000;fontSize=17;" parent="2VhdCc770bpT6j64DNjl-77" vertex="1">
          <mxGeometry y="30" width="220" height="20" as="geometry" />
        </mxCell>
        <mxCell id="2VhdCc770bpT6j64DNjl-79" value="&lt;font style=&quot;font-size: 16px;&quot;&gt;address&amp;nbsp; &amp;nbsp; &amp;nbsp; &amp;nbsp; &amp;nbsp; &amp;nbsp; &amp;nbsp; &amp;nbsp; &amp;nbsp;&amp;nbsp;&lt;/font&gt;&lt;font style=&quot;font-size: 10px; color: rgb(148, 148, 148);&quot;&gt;VARCHAR(40)&lt;/font&gt;" style="text;spacing=0;strokeColor=none;align=left;verticalAlign=middle;spacingLeft=7;spacingRight=10;overflow=hidden;points=[[0,0.5],[1,0.5]];portConstraint=eastwest;rotatable=0;whiteSpace=wrap;html=1;rSize=5;fillColor=none;fontColor=light-dark(#000000, #959595);fontSize=17;" parent="2VhdCc770bpT6j64DNjl-77" vertex="1">
          <mxGeometry y="50" width="220" height="20" as="geometry" />
        </mxCell>
        <mxCell id="2VhdCc770bpT6j64DNjl-80" value="&lt;font style=&quot;font-size: 16px;&quot;&gt;address2&amp;nbsp; &amp;nbsp; &amp;nbsp; &amp;nbsp; &amp;nbsp; &amp;nbsp; &amp;nbsp; &amp;nbsp;&amp;nbsp;&lt;/font&gt;&lt;span style=&quot;font-size: 10px;&quot;&gt;&lt;font style=&quot;color: rgb(148, 148, 148);&quot;&gt;VARCHAR(40)&lt;/font&gt;&lt;/span&gt;" style="text;spacing=0;strokeColor=none;align=left;verticalAlign=middle;spacingLeft=7;spacingRight=10;overflow=hidden;points=[[0,0.5],[1,0.5]];portConstraint=eastwest;rotatable=0;whiteSpace=wrap;html=1;rSize=5;fillColor=none;fontColor=#000000;fontSize=17;" parent="2VhdCc770bpT6j64DNjl-77" vertex="1">
          <mxGeometry y="70" width="220" height="20" as="geometry" />
        </mxCell>
        <mxCell id="2VhdCc770bpT6j64DNjl-82" value="&lt;font&gt;&lt;font style=&quot;font-size: 16px;&quot;&gt;city&amp;nbsp; &amp;nbsp; &amp;nbsp; &amp;nbsp; &amp;nbsp; &amp;nbsp;&lt;/font&gt;&lt;font style=&quot;&quot;&gt;&amp;nbsp; &amp;nbsp; &amp;nbsp; &amp;nbsp; &amp;nbsp; &amp;nbsp; &amp;nbsp;&amp;nbsp;&lt;/font&gt;&lt;/font&gt;&lt;span style=&quot;font-size: 10px;&quot;&gt;&lt;font style=&quot;color: rgb(148, 148, 148);&quot;&gt;VARCHAR(50)&lt;/font&gt;&lt;/span&gt;" style="text;spacing=0;strokeColor=none;align=left;verticalAlign=middle;spacingLeft=7;spacingRight=10;overflow=hidden;points=[[0,0.5],[1,0.5]];portConstraint=eastwest;rotatable=0;whiteSpace=wrap;html=1;fillColor=none;fontColor=#000000;fontSize=17;" parent="2VhdCc770bpT6j64DNjl-77" vertex="1">
          <mxGeometry y="90" width="220" height="20" as="geometry" />
        </mxCell>
        <mxCell id="2VhdCc770bpT6j64DNjl-83" value="&lt;font&gt;&lt;font style=&quot;font-size: 16px;&quot;&gt;country&amp;nbsp; &amp;nbsp;&amp;nbsp;&lt;/font&gt;&lt;font style=&quot;&quot;&gt;&amp;nbsp; &amp;nbsp; &amp;nbsp; &amp;nbsp; &amp;nbsp; &amp;nbsp; &amp;nbsp;&amp;nbsp;&lt;/font&gt;&lt;/font&gt;&lt;span style=&quot;font-size: 10px;&quot;&gt;&lt;font style=&quot;color: rgb(148, 148, 148);&quot;&gt;VARCHAR(5&lt;/font&gt;&lt;/span&gt;&lt;span style=&quot;color: rgb(148, 148, 148); font-size: 10px; background-color: transparent;&quot;&gt;0)&lt;/span&gt;" style="text;spacing=0;strokeColor=none;align=left;verticalAlign=middle;spacingLeft=7;spacingRight=10;overflow=hidden;points=[[0,0.5],[1,0.5]];portConstraint=eastwest;rotatable=0;whiteSpace=wrap;html=1;fillColor=none;fontColor=#000000;fontSize=17;" parent="2VhdCc770bpT6j64DNjl-77" vertex="1">
          <mxGeometry y="110" width="220" height="20" as="geometry" />
        </mxCell>
        <mxCell id="2VhdCc770bpT6j64DNjl-95" value="&lt;font&gt;&lt;font style=&quot;font-size: 16px;&quot;&gt;postal_code&amp;nbsp;&lt;/font&gt;&lt;font style=&quot;&quot;&gt;&amp;nbsp; &amp;nbsp; &amp;nbsp; &amp;nbsp; &amp;nbsp;&amp;nbsp;&lt;/font&gt;&lt;/font&gt;&lt;span style=&quot;font-size: 10px;&quot;&gt;&lt;font style=&quot;color: rgb(148, 148, 148);&quot;&gt;VARCHAR(1&lt;/font&gt;&lt;/span&gt;&lt;span style=&quot;color: rgb(148, 148, 148); font-size: 10px; background-color: transparent;&quot;&gt;0)&lt;/span&gt;" style="text;spacing=0;strokeColor=none;align=left;verticalAlign=middle;spacingLeft=7;spacingRight=10;overflow=hidden;points=[[0,0.5],[1,0.5]];portConstraint=eastwest;rotatable=0;whiteSpace=wrap;html=1;fillColor=none;fontColor=#000000;fontSize=17;" parent="2VhdCc770bpT6j64DNjl-77" vertex="1">
          <mxGeometry y="130" width="220" height="20" as="geometry" />
        </mxCell>
        <mxCell id="2VhdCc770bpT6j64DNjl-84" value="&lt;font style=&quot;font-size: 18px;&quot; color=&quot;#ffffff&quot;&gt;&lt;b&gt;&amp;nbsp;phone&lt;/b&gt;&lt;/font&gt;" style="swimlane;strokeColor=none;swimlaneFillColor=#F2F2F2;fillColor=#316896;fontStyle=0;childLayout=stackLayout;horizontal=1;startSize=30;horizontalStack=0;resizeParent=1;resizeParentMax=0;resizeLast=0;collapsible=0;marginBottom=0;whiteSpace=wrap;html=1;fontSize=17;textShadow=0;shadow=1;rounded=0;align=left;" parent="1" vertex="1">
          <mxGeometry x="560" y="270" width="220" height="90" as="geometry" />
        </mxCell>
        <mxCell id="2VhdCc770bpT6j64DNjl-85" value="&lt;font style=&quot;font-size: 16px;&quot;&gt;contact_id&amp;nbsp;&amp;nbsp; &amp;nbsp; &amp;nbsp; &amp;nbsp; &amp;nbsp; &amp;nbsp; &amp;nbsp; &amp;nbsp; &amp;nbsp;&lt;/font&gt;&lt;font style=&quot;font-size: 10px; color: rgb(148, 148, 148);&quot;&gt;SMALLINT&lt;/font&gt;" style="text;spacing=0;strokeColor=none;align=left;verticalAlign=middle;spacingLeft=7;spacingRight=10;overflow=hidden;points=[[0,0.5],[1,0.5]];portConstraint=eastwest;rotatable=0;whiteSpace=wrap;html=1;fillColor=none;fontColor=#000000;fontSize=17;" parent="2VhdCc770bpT6j64DNjl-84" vertex="1">
          <mxGeometry y="30" width="220" height="20" as="geometry" />
        </mxCell>
        <mxCell id="2VhdCc770bpT6j64DNjl-86" value="&lt;font style=&quot;font-size: 16px;&quot;&gt;type&amp;nbsp; &amp;nbsp; &amp;nbsp; &amp;nbsp; &amp;nbsp; &amp;nbsp; &amp;nbsp; &amp;nbsp; &amp;nbsp; &amp;nbsp; &amp;nbsp; &amp;nbsp;&amp;nbsp;&lt;/font&gt;&lt;font style=&quot;font-size: 10px; color: rgb(148, 148, 148);&quot;&gt;VARCHAR(30)&lt;/font&gt;" style="text;spacing=0;strokeColor=none;align=left;verticalAlign=middle;spacingLeft=7;spacingRight=10;overflow=hidden;points=[[0,0.5],[1,0.5]];portConstraint=eastwest;rotatable=0;whiteSpace=wrap;html=1;rSize=5;fillColor=none;fontColor=light-dark(#000000, #959595);fontSize=17;" parent="2VhdCc770bpT6j64DNjl-84" vertex="1">
          <mxGeometry y="50" width="220" height="20" as="geometry" />
        </mxCell>
        <mxCell id="2VhdCc770bpT6j64DNjl-87" value="&lt;font style=&quot;font-size: 16px;&quot;&gt;number&amp;nbsp; &amp;nbsp; &amp;nbsp; &amp;nbsp; &amp;nbsp; &amp;nbsp; &amp;nbsp; &amp;nbsp; &amp;nbsp; &amp;nbsp;&lt;/font&gt;&lt;span style=&quot;font-size: 10px;&quot;&gt;&lt;font style=&quot;color: rgb(148, 148, 148);&quot;&gt;VARCHAR(20)&lt;/font&gt;&lt;/span&gt;" style="text;spacing=0;strokeColor=none;align=left;verticalAlign=middle;spacingLeft=7;spacingRight=10;overflow=hidden;points=[[0,0.5],[1,0.5]];portConstraint=eastwest;rotatable=0;whiteSpace=wrap;html=1;rSize=5;fillColor=none;fontColor=#000000;fontSize=17;" parent="2VhdCc770bpT6j64DNjl-84" vertex="1">
          <mxGeometry y="70" width="220" height="20" as="geometry" />
        </mxCell>
        <mxCell id="2VhdCc770bpT6j64DNjl-91" value="&lt;font style=&quot;font-size: 18px;&quot; color=&quot;#ffffff&quot;&gt;&lt;b&gt;&amp;nbsp;email&lt;/b&gt;&lt;/font&gt;" style="swimlane;strokeColor=none;swimlaneFillColor=#F2F2F2;fillColor=#316896;fontStyle=0;childLayout=stackLayout;horizontal=1;startSize=30;horizontalStack=0;resizeParent=1;resizeParentMax=0;resizeLast=0;collapsible=0;marginBottom=0;whiteSpace=wrap;html=1;fontSize=17;textShadow=0;shadow=1;rounded=0;align=left;" parent="1" vertex="1">
          <mxGeometry x="560" y="400" width="220" height="90" as="geometry" />
        </mxCell>
        <mxCell id="2VhdCc770bpT6j64DNjl-92" value="&lt;font style=&quot;font-size: 16px;&quot;&gt;contact_id&amp;nbsp;&amp;nbsp; &amp;nbsp; &amp;nbsp; &amp;nbsp; &amp;nbsp; &amp;nbsp; &amp;nbsp; &amp;nbsp; &amp;nbsp;&lt;/font&gt;&lt;font style=&quot;font-size: 10px; color: rgb(148, 148, 148);&quot;&gt;SMALLINT&lt;/font&gt;" style="text;spacing=0;strokeColor=none;align=left;verticalAlign=middle;spacingLeft=7;spacingRight=10;overflow=hidden;points=[[0,0.5],[1,0.5]];portConstraint=eastwest;rotatable=0;whiteSpace=wrap;html=1;fillColor=none;fontColor=#000000;fontSize=17;" parent="2VhdCc770bpT6j64DNjl-91" vertex="1">
          <mxGeometry y="30" width="220" height="20" as="geometry" />
        </mxCell>
        <mxCell id="2VhdCc770bpT6j64DNjl-93" value="&lt;font style=&quot;font-size: 16px;&quot;&gt;type&amp;nbsp; &amp;nbsp; &amp;nbsp; &amp;nbsp; &amp;nbsp; &amp;nbsp; &amp;nbsp; &amp;nbsp; &amp;nbsp; &amp;nbsp; &amp;nbsp; &amp;nbsp;&amp;nbsp;&lt;/font&gt;&lt;font style=&quot;font-size: 10px; color: rgb(148, 148, 148);&quot;&gt;VARCHAR(30)&lt;/font&gt;" style="text;spacing=0;strokeColor=none;align=left;verticalAlign=middle;spacingLeft=7;spacingRight=10;overflow=hidden;points=[[0,0.5],[1,0.5]];portConstraint=eastwest;rotatable=0;whiteSpace=wrap;html=1;rSize=5;fillColor=none;fontColor=light-dark(#000000, #959595);fontSize=17;" parent="2VhdCc770bpT6j64DNjl-91" vertex="1">
          <mxGeometry y="50" width="220" height="20" as="geometry" />
        </mxCell>
        <mxCell id="2VhdCc770bpT6j64DNjl-94" value="&lt;font style=&quot;font-size: 16px;&quot;&gt;address&amp;nbsp; &amp;nbsp; &amp;nbsp; &amp;nbsp; &amp;nbsp; &amp;nbsp; &amp;nbsp; &amp;nbsp; &amp;nbsp;&amp;nbsp;&lt;/font&gt;&lt;span style=&quot;font-size: 10px;&quot;&gt;&lt;font style=&quot;color: rgb(148, 148, 148);&quot;&gt;VARCHAR(50)&lt;/font&gt;&lt;/span&gt;" style="text;spacing=0;strokeColor=none;align=left;verticalAlign=middle;spacingLeft=7;spacingRight=10;overflow=hidden;points=[[0,0.5],[1,0.5]];portConstraint=eastwest;rotatable=0;whiteSpace=wrap;html=1;rSize=5;fillColor=none;fontColor=#000000;fontSize=17;" parent="2VhdCc770bpT6j64DNjl-91" vertex="1">
          <mxGeometry y="70" width="220" height="20" as="geometry" />
        </mxCell>
        <mxCell id="2VhdCc770bpT6j64DNjl-103" style="edgeStyle=orthogonalEdgeStyle;rounded=0;orthogonalLoop=1;jettySize=auto;html=1;exitX=1;exitY=0.5;exitDx=0;exitDy=0;entryX=0;entryY=0.5;entryDx=0;entryDy=0;endArrow=ERmany;endFill=0;startArrow=ERone;startFill=0;" parent="1" source="5H_EbrkYPOPUIVsiFO6Z-95" target="2VhdCc770bpT6j64DNjl-76" edge="1">
          <mxGeometry relative="1" as="geometry" />
        </mxCell>
        <mxCell id="2VhdCc770bpT6j64DNjl-104" style="edgeStyle=orthogonalEdgeStyle;rounded=0;orthogonalLoop=1;jettySize=auto;html=1;exitX=1;exitY=0.5;exitDx=0;exitDy=0;entryX=0;entryY=0.5;entryDx=0;entryDy=0;endArrow=ERmany;endFill=0;startArrow=ERone;startFill=0;" parent="1" source="2VhdCc770bpT6j64DNjl-71" target="2VhdCc770bpT6j64DNjl-78" edge="1">
          <mxGeometry relative="1" as="geometry" />
        </mxCell>
        <mxCell id="2VhdCc770bpT6j64DNjl-105" style="edgeStyle=orthogonalEdgeStyle;rounded=0;orthogonalLoop=1;jettySize=auto;html=1;exitX=1;exitY=0.5;exitDx=0;exitDy=0;entryX=0;entryY=0.5;entryDx=0;entryDy=0;endArrow=ERmany;endFill=0;startArrow=ERone;startFill=0;" parent="1" source="2VhdCc770bpT6j64DNjl-71" target="2VhdCc770bpT6j64DNjl-85" edge="1">
          <mxGeometry relative="1" as="geometry" />
        </mxCell>
        <mxCell id="2VhdCc770bpT6j64DNjl-106" style="edgeStyle=orthogonalEdgeStyle;rounded=0;orthogonalLoop=1;jettySize=auto;html=1;exitX=1;exitY=0.5;exitDx=0;exitDy=0;entryX=0;entryY=0.5;entryDx=0;entryDy=0;endArrow=ERmany;endFill=0;startArrow=ERone;startFill=0;" parent="1" source="2VhdCc770bpT6j64DNjl-71" target="2VhdCc770bpT6j64DNjl-92" edge="1">
          <mxGeometry relative="1" as="geometry" />
        </mxCell>
      </root>
    </mxGraphModel>
  </diagram>
</mxfile>
